<svg width="86" height="83" viewBox="0 0 86 83" fill="none" xmlns="http://www.w3.org/2000/svg">
<g filter="url(#filter0_d)">
<path d="M40.9099 39.392C157.325 105.204 -47.5611 61.3558 42.0903 50.8176C48.9609 50.01 49.9025 53.116 44.581 55.0401C42.9309 55.6368 38.8484 55.3626 35.9407 55.7455C30.351 56.4815 24.0014 57.6908 24.3903 59.9826C25.4756 66.3791 53.0878 74.2538 67.5127 70.3432C81.9375 66.4326 53.7537 47.5909 40.9099 39.392C-63.3708 -19.5603 118.692 13.5457 64.6272 31.5041C61.8968 31.8033 58.0085 31.0298 64.2979 25.5422C72.1596 18.6826 49.6459 8.78973 22.9188 9.22879C3.95554 9.54033 25.9336 29.5626 40.9099 39.392Z" fill="url(#paint0_linear)"/>
</g>
<ellipse rx="0.562205" ry="0.541331" transform="matrix(0.291858 0.956461 -0.90679 0.421582 70.3881 19.6903)" fill="white"/>
<ellipse rx="0.19786" ry="0.170941" transform="matrix(0.291858 0.956461 -0.90679 0.421582 72.4691 63.7215)" fill="white"/>
<ellipse rx="0.177007" ry="0.192452" transform="matrix(0.775719 0.631079 -0.479298 0.877652 73.1212 23.2044)" fill="white"/>
<ellipse rx="0.177007" ry="0.192452" transform="matrix(0.775719 0.631079 -0.479298 0.877652 75.6437 67.4276)" fill="white"/>
<ellipse rx="0.177007" ry="0.192452" transform="matrix(0.775719 0.631079 -0.479298 0.877652 64.466 26.9967)" fill="white"/>
<ellipse rx="0.177007" ry="0.192452" transform="matrix(0.775719 0.631079 -0.479298 0.877652 66.9884 71.2198)" fill="white"/>
<ellipse rx="0.177007" ry="0.192452" transform="matrix(0.775719 0.631079 -0.479298 0.877652 21.3996 56.5545)" fill="white"/>
<ellipse rx="0.177007" ry="0.192452" transform="matrix(0.775719 0.631079 -0.479298 0.877652 25.6339 55.3038)" fill="white"/>
<ellipse rx="0.177007" ry="0.192452" transform="matrix(0.775719 0.631079 -0.479298 0.877652 58.338 74.2787)" fill="white"/>
<ellipse rx="0.177007" ry="0.192452" transform="matrix(0.775719 0.631079 -0.479298 0.877652 68.34 59.6129)" fill="white"/>
<ellipse rx="0.177007" ry="0.192452" transform="matrix(0.775719 0.631079 -0.479298 0.877652 12.3009 7.99985)" fill="white"/>
<ellipse rx="0.206151" ry="0.16262" transform="matrix(-0.00385127 0.999993 -0.998991 -0.0448974 13.1287 13.5328)" fill="white"/>
<ellipse rx="0.206151" ry="0.16262" transform="matrix(-0.00385127 0.999993 -0.998991 -0.0448974 12.0506 16.0336)" fill="white"/>
<ellipse rx="0.177007" ry="0.192452" transform="matrix(0.775719 0.631079 -0.479298 0.877652 73.8253 25.7577)" fill="white"/>
<ellipse rx="0.177007" ry="0.192452" transform="matrix(0.775719 0.631079 -0.479298 0.877652 76.3478 69.9811)" fill="white"/>
<ellipse rx="0.177007" ry="0.192452" transform="matrix(0.775719 0.631079 -0.479298 0.877652 34.6437 54.6217)" fill="white"/>
<ellipse rx="0.177007" ry="0.192452" transform="matrix(0.775719 0.631079 -0.479298 0.877652 34.6339 52.9164)" fill="white"/>
<ellipse rx="0.177007" ry="0.192452" transform="matrix(0.775719 0.631079 -0.479298 0.877652 67.7003 73.0394)" fill="white"/>
<ellipse rx="0.177007" ry="0.192452" transform="matrix(0.775719 0.631079 -0.479298 0.877652 21.6603 6.76059)" fill="white"/>
<ellipse rx="0.206151" ry="0.16262" transform="matrix(-0.00385127 0.999993 -0.998991 -0.0448974 18.9901 22.8236)" fill="white"/>
<ellipse rx="0.177007" ry="0.192452" transform="matrix(0.775719 0.631079 -0.479298 0.877652 62.213 28.2474)" fill="white"/>
<ellipse rx="0.177007" ry="0.192452" transform="matrix(0.775719 0.631079 -0.479298 0.877652 64.7355 72.4706)" fill="white"/>
<ellipse rx="0.177007" ry="0.192452" transform="matrix(0.775719 0.631079 -0.479298 0.877652 21.671 58.2596)" fill="white"/>
<ellipse rx="0.177007" ry="0.192452" transform="matrix(0.775719 0.631079 -0.479298 0.877652 24.1037 56.4413)" fill="white"/>
<ellipse rx="0.177007" ry="0.192452" transform="matrix(0.775719 0.631079 -0.479298 0.877652 10.049 9.25034)" fill="white"/>
<ellipse rx="0.868402" ry="0.769742" transform="matrix(-0.00385127 0.999993 -0.998991 -0.0448974 11.9894 11.4913)" fill="white"/>
<ellipse rx="0.206151" ry="0.16262" transform="matrix(-0.00385127 0.999993 -0.998991 -0.0448974 10.0028 14.3099)" fill="white"/>
<ellipse rx="0.177007" ry="0.192452" transform="matrix(0.775719 0.631079 -0.479298 0.877652 70.2433 22.1388)" fill="white"/>
<ellipse rx="0.177007" ry="0.192452" transform="matrix(0.775719 0.631079 -0.479298 0.877652 72.7658 66.3624)" fill="white"/>
<ellipse rx="0.177007" ry="0.192452" transform="matrix(0.775719 0.631079 -0.479298 0.877652 66.7169 28.5882)" fill="white"/>
<ellipse rx="0.177007" ry="0.192452" transform="matrix(0.775719 0.631079 -0.479298 0.877652 69.2414 72.8114)" fill="white"/>
<ellipse rx="0.177007" ry="0.192452" transform="matrix(0.775719 0.631079 -0.479298 0.877652 24.5539 58.2596)" fill="white"/>
<ellipse rx="0.177007" ry="0.192452" transform="matrix(0.775719 0.631079 -0.479298 0.877652 26.8058 56.7945)" fill="white"/>
<ellipse rx="0.177007" ry="0.192452" transform="matrix(0.775719 0.631079 -0.479298 0.877652 70.5919 61.2044)" fill="white"/>
<ellipse rx="0.177007" ry="0.192452" transform="matrix(0.775719 0.631079 -0.479298 0.877652 14.5529 9.59116)" fill="white"/>
<ellipse rx="0.206151" ry="0.16262" transform="matrix(-0.00385127 0.999993 -0.998991 -0.0448974 13.2782 16.785)" fill="white"/>
<ellipse rx="0.177007" ry="0.192452" transform="matrix(0.775719 0.631079 -0.479298 0.877652 67.2003 22.9388)" fill="white"/>
<ellipse rx="0.19786" ry="0.170941" transform="matrix(0.291858 0.956461 -0.90679 0.421582 67.3305 17.3138)" fill="white"/>
<ellipse rx="0.19786" ry="0.170941" transform="matrix(0.291858 0.956461 -0.90679 0.421582 62.557 30.6148)" fill="white"/>
<ellipse rx="0.19786" ry="0.170941" transform="matrix(0.291858 0.956461 -0.90679 0.421582 20.392 60.2867)" fill="white"/>
<ellipse rx="0.461485" ry="0.462336" transform="matrix(0.291858 0.956461 -0.90679 0.421582 22.7203 60.5404)" fill="white"/>
<ellipse rx="0.19786" ry="0.170941" transform="matrix(0.291858 0.956461 -0.90679 0.421582 10.392 11.6185)" fill="white"/>
<ellipse rx="0.189036" ry="0.182233" transform="matrix(-0.504592 0.863358 -0.721643 -0.692265 9.68717 13.4482)" fill="white"/>
<ellipse rx="0.177007" ry="0.192452" transform="matrix(0.775719 0.631079 -0.479298 0.877652 67.631 19.0382)" fill="white"/>
<ellipse rx="0.19786" ry="0.170941" transform="matrix(0.291858 0.956461 -0.90679 0.421582 66.2504 20.6109)" fill="white"/>
<ellipse rx="0.177007" ry="0.192452" transform="matrix(0.775719 0.631079 -0.479298 0.877652 72.1691 25.9852)" fill="white"/>
<ellipse rx="0.177007" ry="0.192452" transform="matrix(0.775719 0.631079 -0.479298 0.877652 74.6925 70.2083)" fill="white"/>
<ellipse rx="0.177007" ry="0.192452" transform="matrix(0.775719 0.631079 -0.479298 0.877652 30.7267 54.609)" fill="white"/>
<ellipse rx="0.177007" ry="0.192452" transform="matrix(0.775719 0.631079 -0.479298 0.877652 33.0216 53.7123)" fill="white"/>
<ellipse rx="0.177007" ry="0.192452" transform="matrix(0.775719 0.631079 -0.479298 0.877652 66.0421 73.2665)" fill="white"/>
<ellipse rx="0.177007" ry="0.192452" transform="matrix(0.775719 0.631079 -0.479298 0.877652 20.0041 6.98764)" fill="white"/>
<ellipse rx="0.206151" ry="0.16262" transform="matrix(-0.00385127 0.999993 -0.998991 -0.0448974 17.9481 21.184)" fill="white"/>
<ellipse rx="0.19786" ry="0.170941" transform="matrix(0.291858 0.956461 -0.90679 0.421582 68.8354 21.9901)" fill="white"/>
<ellipse rx="0.177007" ry="0.192452" transform="matrix(0.775719 0.631079 -0.479298 0.877652 68.7228 26.4786)" fill="white"/>
<ellipse rx="0.842972" ry="0.822241" transform="matrix(0.775719 0.631079 -0.479298 0.877652 71.5733 70.1709)" fill="white"/>
<ellipse rx="0.177007" ry="0.192452" transform="matrix(0.775719 0.631079 -0.479298 0.877652 27.2785 55.1029)" fill="white"/>
<ellipse rx="0.177007" ry="0.192452" transform="matrix(0.775719 0.631079 -0.479298 0.877652 29.5333 53.6375)" fill="white"/>
<ellipse rx="0.177007" ry="0.192452" transform="matrix(0.775719 0.631079 -0.479298 0.877652 62.5958 73.7599)" fill="white"/>
<ellipse rx="0.177007" ry="0.192452" transform="matrix(0.775719 0.631079 -0.479298 0.877652 16.5597 7.48178)" fill="white"/>
<ellipse rx="0.206151" ry="0.16262" transform="matrix(-0.00385127 0.999993 -0.998991 -0.0448974 15.7645 17.7836)" fill="white"/>
<ellipse rx="0.206151" ry="0.16262" transform="matrix(-0.00385127 0.999993 -0.998991 -0.0448974 14.6844 20.2845)" fill="white"/>
<ellipse rx="0.177007" ry="0.192452" transform="matrix(0.775719 0.631079 -0.479298 0.877652 72.9337 21.1986)" fill="white"/>
<ellipse rx="0.177007" ry="0.192452" transform="matrix(0.775719 0.631079 -0.479298 0.877652 75.4572 65.4225)" fill="white"/>
<path d="M51.9156 68.1479L48.0129 39.3186L64.1356 10.3701H56.6608L46.4744 32.6512L35.2035 10.3701H26.2373L45.7748 39.3186L41.3225 68.1479H51.9156Z" fill="black" stroke="black" stroke-width="4"/>
<defs>
<filter id="filter0_d" x="4.04199" y="5.88208" width="77.7028" height="77.0108" filterUnits="userSpaceOnUse" color-interpolation-filters="sRGB">
<feFlood flood-opacity="0" result="BackgroundImageFix"/>
<feColorMatrix in="SourceAlpha" type="matrix" values="0 0 0 0 0 0 0 0 0 0 0 0 0 0 0 0 0 0 127 0"/>
<feOffset dy="4"/>
<feGaussianBlur stdDeviation="2"/>
<feColorMatrix type="matrix" values="0 0 0 0 0 0 0 0 0 0 0 0 0 0 0 0 0 0 0.25 0"/>
<feBlend mode="normal" in2="BackgroundImageFix" result="effect1_dropShadow"/>
<feBlend mode="normal" in="SourceGraphic" in2="effect1_dropShadow" result="shape"/>
</filter>
<linearGradient id="paint0_linear" x1="-13.4351" y1="49.0177" x2="73.9952" y2="-0.871706" gradientUnits="userSpaceOnUse">
<stop offset="0.239031" stop-color="#4B0AD6"/>
<stop offset="0.544621" stop-color="#9267EC"/>
<stop offset="0.712798" stop-color="#371A73"/>
<stop offset="0.936953" stop-color="#110727"/>
</linearGradient>
</defs>
</svg>
